<?xml version="1.0" encoding="UTF-8" standalone="no"?>
<!-- Created with Inkscape (http://www.inkscape.org/) -->

<svg
   width="100"
   height="100"
   viewBox="0 0 100 100"
   version="1.1"
   id="svg1"
   inkscape:version="1.4 (86a8ad7, 2024-10-11)"
   sodipodi:docname="klimarisk_logo2_clean.svg"
   xmlns:inkscape="http://www.inkscape.org/namespaces/inkscape"
   xmlns:sodipodi="http://sodipodi.sourceforge.net/DTD/sodipodi-0.dtd"
   xmlns:xlink="http://www.w3.org/1999/xlink"
   xmlns="http://www.w3.org/2000/svg"
   xmlns:svg="http://www.w3.org/2000/svg">
  <sodipodi:namedview
     id="namedview1"
     pagecolor="#ffffff"
     bordercolor="#000000"
     borderopacity="0.25"
     inkscape:showpageshadow="true"
     inkscape:pageopacity="0.0"
     inkscape:pagecheckerboard="true"
     inkscape:deskcolor="#d1d1d1"
     inkscape:document-units="px"
     showborder="true"
     borderlayer="true"
     labelstyle="default"
     inkscape:zoom="3.4636364"
     inkscape:cx="6.64042"
     inkscape:cy="47.637795"
     inkscape:window-width="1280"
     inkscape:window-height="730"
     inkscape:window-x="761"
     inkscape:window-y="1721"
     inkscape:window-maximized="1"
     inkscape:current-layer="svg1" />
  <defs
     id="defs1">
    <rect
       x="21.942257"
       y="12.414698"
       width="106.82415"
       height="81.994751"
       id="rect3" />
    <rect
       x="23.385827"
       y="20.498688"
       width="44.461942"
       height="51.391076"
       id="rect2" />
    <rect
       x="26.56168"
       y="22.230971"
       width="52.257218"
       height="58.897638"
       id="rect1" />
    <rect
       x="21.942257"
       y="12.414698"
       width="106.82415"
       height="81.994751"
       id="rect4" />
    <rect
       x="21.942257"
       y="12.414698"
       width="196.32546"
       height="110"
       id="rect5" />
    <rect
       x="21.942257"
       y="12.414698"
       width="106.82415"
       height="81.994751"
       id="rect4-4" />
    <rect
       x="21.942257"
       y="12.414698"
       width="106.82415"
       height="81.994751"
       id="rect6" />
    <linearGradient
       inkscape:collect="always"
       xlink:href="#linearGradient6"
       id="linearGradient7"
       x1="50.213718"
       y1="4.9972396"
       x2="50.213718"
       y2="93.755989"
       gradientUnits="userSpaceOnUse"
       gradientTransform="matrix(1.0714925,0,0,1.0714925,-4.5172746,-2.3372018)" />
    <linearGradient
       id="linearGradient6"
       inkscape:collect="always">
      <stop
         style="stop-color:#fff5f0;stop-opacity:1;"
         offset="0"
         id="stop6" />
      <stop
         style="stop-color:#fff5f0;stop-opacity:1;"
         offset="0.17654987"
         id="stop8" />
      <stop
         style="stop-color:#fcbba1;stop-opacity:1;"
         offset="0.17654987"
         id="stop9" />
      <stop
         style="stop-color:#fcbba1;stop-opacity:1;"
         offset="0.33861187"
         id="stop10" />
      <stop
         style="stop-color:#fb6a4a;stop-opacity:1;"
         offset="0.33861187"
         id="stop11" />
      <stop
         style="stop-color:#fb6a4a;stop-opacity:1;"
         offset="0.49974725"
         id="stop12" />
      <stop
         style="stop-color:#cb181d;stop-opacity:1;"
         offset="0.49974725"
         id="stop13" />
      <stop
         style="stop-color:#cb181d;stop-opacity:1;"
         offset="0.7579599"
         id="stop14" />
      <stop
         style="stop-color:#67000d;stop-opacity:1;"
         offset="0.7579599"
         id="stop15" />
      <stop
         style="stop-color:#67000d;stop-opacity:1;"
         offset="1"
         id="stop7" />
    </linearGradient>
  </defs>
  <path
     d="M 59.041784,67.682775 H 38.678775 v -3.070119 c 0,-3.425159 0.626555,-6.453502 1.87966,-9.085032 1.253112,-2.673296 3.863757,-6.056692 7.831931,-10.150177 l 3.634011,-3.634017 c 2.130285,-2.172052 3.696673,-4.218798 4.69916,-6.140231 1.002486,-1.921436 1.503728,-3.842864 1.503728,-5.764297 0,-2.92392 -0.918946,-5.200401 -2.756836,-6.829445 -1.796122,-1.670808 -4.302338,-2.506216 -7.518649,-2.506216 -3.049233,0 -6.349086,0.710096 -9.899561,2.130285 -3.508704,1.37842 -7.184486,3.446048 -11.027354,6.20289 V 9.1626122 C 31.577829,7.4082586 35.73397,6.1133803 39.493293,5.2779774 43.252621,4.4425699 46.886636,4.0248668 50.395339,4.0248668 c 9.147689,0 16.123328,2.0885135 20.926911,6.2655442 4.845348,4.135256 7.268025,10.191947 7.268025,18.170072 0,4.093487 -0.751862,7.769271 -2.255593,11.027354 -1.461963,3.216313 -3.947289,6.683244 -7.455994,10.400799 l -3.634014,3.57136 c -2.547984,2.589756 -4.2188,4.67827 -5.012435,6.265538 -0.793634,1.545504 -1.190455,3.258086 -1.190455,5.137748 z M 38.678775,74.812793 H 59.041784 V 94.975135 H 38.678775 Z"
     id="text6"
     style="font-weight:bold;font-stretch:semi-condensed;font-size:28px;line-height:2.15;font-family:'DejaVu Sans';-inkscape-font-specification:'DejaVu Sans, Bold Semi-Condensed';white-space:pre;fill:url(#linearGradient7);stroke:#000000;stroke-width:4.04973;stroke-linejoin:round;stroke-dasharray:none;stroke-opacity:1;stroke-miterlimit:10"
     inkscape:label="text2"
     aria-label="?"
     sodipodi:nodetypes="ccscccsscscccsscsccccscccccc" />
</svg>
